<svg xmlns="http://www.w3.org/2000/svg" viewBox="0 0 1024 1024">
  <g transform="scale(1,-1) translate(0,-1024)">
    <path d="M0 654V142H82V157Q82 217 124.0 259.0Q166 301 225 301Q285 301 327.0 259.0Q369 217 369 157V142H658V157Q658 217 700.0 259.0Q742 301 801 301Q861 301 903.0 259.0Q945 217 945 157V142H1024V390L940 429L835 654ZM417 431H353V367H289V431H225V495H289V559H353V495H417ZM663 431V559H773L832 431ZM225 239Q192 239 169.0 216.0Q146 193 146 160Q146 127 169.0 104.0Q192 81 225 81Q258 81 281.5 104.0Q305 127 305 160Q304 193 281.0 216.0Q258 239 225 239ZM801 239Q768 239 745.0 216.0Q722 193 722 160Q722 127 745.0 104.0Q768 81 801 81Q834 81 857.5 104.0Q881 127 881 160Q880 193 857.0 216.0Q834 239 801 239ZM448 751V687H576V751Q576 778 557.5 796.5Q539 815 512 815Q485 815 466.5 796.5Q448 778 448 751Z" fill="currentColor"/>
  </g>
</svg>
