<svg xmlns="http://www.w3.org/2000/svg" viewBox="0 0 1024 1024">
  <g transform="scale(1,-1) translate(0,-1024)">
    <path d="M166 639H289V511H105ZM384 639H566L704 511H384ZM105 736 0 511V224H97V239Q97 299 139.0 341.0Q181 383 241 383Q300 383 342.0 341.0Q384 299 384 239V224H640V239Q640 299 682.0 341.0Q724 383 783 383Q843 383 885.0 341.0Q927 299 927 239V224H1024V480L845 511L604 736H105ZM241 319Q208 319 184.5 295.5Q161 272 161 239Q161 206 184.5 183.0Q208 160 241 160Q274 160 297.0 183.0Q320 206 320 239Q320 272 296.5 295.5Q273 319 241 319ZM783 319Q750 319 727.0 295.5Q704 272 704 239Q704 206 727.0 183.0Q750 160 783 160Q816 160 839.5 183.0Q863 206 863 239Q863 240 863.0 240.5Q863 241 863 242Q863 274 840.5 296.5Q818 319 786 319Q785 319 784.5 319.0Q784 319 783 319Z" fill="currentColor"/>
  </g>
</svg>
