<svg xmlns="http://www.w3.org/2000/svg" viewBox="0 0 1024 1024">
  <g transform="scale(1,-1) translate(0,-1024)">
    <path d="M891 334V587H669V334H605V587H383V334H319V587H255V781H191V687H128V337H0L105 115H919L1024 337ZM743 219Q730 219 721.0 228.0Q712 237 712 250Q712 263 721.0 272.0Q730 281 743 281Q756 281 765.0 272.0Q774 263 774 250Q774 250 774.0 249.5Q774 249 774 249Q774 237 765.5 228.0Q757 219 744 219Q744 219 743.5 219.0Q743 219 743 219ZM871 219Q858 219 849.0 228.0Q840 237 840 250Q840 263 849.0 272.0Q858 281 871 281Q883 281 892.0 272.0Q901 263 901 250Q901 250 901.0 249.5Q901 249 901 249Q901 237 892.5 228.0Q884 219 872 219Q872 219 871.5 219.0Q871 219 871 219Z" fill="currentColor"/>
  </g>
</svg>
