<svg xmlns="http://www.w3.org/2000/svg" viewBox="0 0 1024 1024">
  <g transform="translate(0, 960)">
    <path fill="currentColor" d="M879-684L879-684Q861-744 825-795L825-795Q789-846 740-882.50Q691-919 632-939L632-939Q573-960 507-960L507-960Q427-960 357-930L357-930Q286-899 233.50-846.50Q181-794 150-724L150-724Q119-654 119-574L119-574L119-573Q119-562 127.50-553.50Q136-545 147-545L147-545Q159-545 167-553.50Q175-562 175-573L175-573L175-573Q175-574 175-574Q175-574 175-574L175-574Q175-643 201-704L201-704Q227-764 272.50-809Q318-854 378-880L378-880Q438-906 507-906L507-906Q561-906 610-890L610-890Q659-873 700-844Q741-815 772-774L772-774Q803-734 820-686L820-686L820-684L820-463L877-463Q877-463 877-463Q877-463 877-463L877-463Q894-463 906-475Q918-487 918-504L918-504Q918-504 918-504Q918-504 918-504L918-504L918-504L918-645Q917-661 906-672Q895-683 879-684L879-684L879-684ZM508-402L508-402Q474-402 450-426Q426-450 426-484L426-484Q426-518 450-542Q474-566 508-566L508-566L508-566Q508-566 508-566Q508-566 509-566L509-566Q535-566 556-550Q577-534 585-510L585-510L585-509L749-509Q752-523 754-539Q756-555 756-571L756-571L756-571Q757-573 757-575Q757-577 757-580L757-580Q757-633 737-679L737-679Q717-725 682-759.50Q647-794 601-814L601-814Q555-834 502-834L502-834Q449-834 403-814L403-814Q356-794 321.50-759.50Q287-725 267-679L267-679Q247-633 247-580L247-580Q247-527 267-481L267-481Q287-434 321.50-399.50Q356-365 403-345L403-345Q449-325 502-325L502-325Q574-325 633.50-361.50Q693-398 725-457L725-457L726-458L582-458Q576-434 556-418Q536-402 510-402L510-402Q510-402 509.50-402Q509-402 508-402L508-402L508-402ZM559-253L559-253L454-253Q454-253 453-253Q452-253 452-253L452-253Q384-253 323-229L323-229Q263-204 217-161.50Q171-119 141-61L141-61Q112-4 106 63L106 63L106 64L905 64Q900-3 871-61L871-61Q843-119 797-161.50Q751-204 691-229L691-229Q631-253 563-253L563-253Q562-253 561-253Q560-253 559-253L559-253L559-253Z"/>
  </g>
</svg>
