<svg xmlns="http://www.w3.org/2000/svg" viewBox="0 0 1024 1024">
  <g transform="scale(1,-1) translate(0,-1024)">
    <path d="M468 678 64 489V379L468 568ZM637 415 471 494 131 333V-64H558L486 92ZM374 125H271V228H374ZM561 92 632 -64H883L955 92L878 253L824 138L701 402ZM553 960H328Q328 922 345 886Q362 851 391.0 822.5Q420 794 457 774Q495 754 535 748L538 719Q542 676 559.5 638.5Q577 601 604 571Q633 540 664.5 524.5Q696 509 735 509L829 297Q881 324 920.5 376.0Q960 428 960 492Q960 533 946 570Q932 607 907.0 636.0Q882 665 848 685Q814 705 774 711L773 712V742Q773 788 755 827Q738 867 708.0 896.5Q678 926 639 943Q599 960 554 960Q553 960 553.0 960.0Q553 960 553 960Z" fill="currentColor"/>
  </g>
</svg>
