<svg xmlns="http://www.w3.org/2000/svg" viewBox="0 0 1024 1024">
  <g transform="scale(1,-1) translate(0,-1024)">
    <path d="M711 858Q688 904 643.5 932.0Q599 960 545 960Q491 960 447.0 932.0Q403 904 380 859L379 858ZM359 791V774Q359 696 413.5 641.5Q468 587 545 587Q622 587 677.0 641.5Q732 696 732 774V791H359ZM921 -61V176Q920 246 893 308Q867 370 821.0 416.0Q775 462 713 489Q651 515 581 516H479Q439 515 402.0 506.5Q365 498 331 482H333L446 242H548Q611 242 656.0 197.0Q701 152 701 89Q701 28 659.5 -16.0Q618 -60 558 -64H921ZM476 179 555 8Q588 11 610.0 35.0Q632 59 632 92Q632 127 607.5 151.5Q583 176 548 176H476ZM114 186Q109 173 106.5 157.5Q104 142 103 125Q103 125 103.0 125.0Q103 125 103 124Q103 51 152.5 -2.0Q202 -55 274 -61H275H326L160 294ZM198 370 400 -61H512L275 449Q253 432 234.0 412.5Q215 393 199 371L198 370Z" fill="currentColor"/>
  </g>
</svg>
