<svg xmlns="http://www.w3.org/2000/svg" xmlns:xlink="http://www.w3.org/1999/xlink" width="30" height="30" viewBox="0 0 30 30">
  <defs>
    <clipPath id="clip-path">
      <rect id="Rectangle_41" data-name="Rectangle 41" width="30" height="30" transform="translate(501 3334)" fill="#f5f5f5"/>
    </clipPath>
  </defs>
  <g id="Mask_Group_16" data-name="Mask Group 16" transform="translate(-501 -3334)" clip-path="url(#clip-path)">
    <g id="sns_yt" transform="translate(501 3334)">
      <circle id="Ellipse_5" data-name="Ellipse 5" cx="15" cy="15" r="15" fill="#e70000"/>
      <g id="Group_20" data-name="Group 20">
        <path id="Path_42" data-name="Path 42" d="M24.554,10.169A2.505,2.505,0,0,0,22.79,8.394C21.234,7.975,15,7.975,15,7.975s-6.234,0-7.79.419a2.511,2.511,0,0,0-1.764,1.775A26.323,26.323,0,0,0,5.03,15a26.323,26.323,0,0,0,.416,4.831A2.505,2.505,0,0,0,7.21,21.606c1.556.419,7.79.419,7.79.419s6.234,0,7.79-.419a2.511,2.511,0,0,0,1.764-1.775A26.323,26.323,0,0,0,24.97,15,26.324,26.324,0,0,0,24.554,10.169Z" fill="#fff"/>
        <path id="Path_43" data-name="Path 43" d="M12.961,17.965v-5.93L18.173,15Z" fill="#e70000"/>
      </g>
    </g>
  </g>
</svg>
